# File created by Blade
# Date/Time:  Thu Sep 25 15:31:15 2014
# Frame Rate: 120.000 fps
#------------------------------------------------------
:FULLY-SPECIFIED
:DEGREES
1425
root -15.434774 32.411299 -13.293200 262.074832 87.373240 -102.496199
Spine 4.392754 9.018167 -0.097890
Head -16.309278 -24.320548 21.847588
LeftShoulder -4.162697 26.578394 15.632540
LeftArm 39.634055 35.717615 -47.256894
LeftForeArm -5.464286 0.000000 87.860326
LeftHand -19.029915 -0.000000 -23.242990
LeftHandThumb1 -26.253704 0.000000 33.147579
RightShoulder -13.685137 5.119634 -22.548106
RightArm -13.100132 -50.524096 82.132694
RightForeArm -7.360121 -0.000000 101.796982
RightHand -1.734823 0.000000 26.274264
RightHandThumb1 -24.326973 -0.000000 -32.862282
LeftUpLeg -17.035229 10.372567 8.262717
LeftLeg 22.797493 -0.000000 -0.000000
LeftFoot -17.153547 9.460952 -29.500828
LeftToeBase 1.929607 -0.000000 -0.000000
RightUpLeg -19.770810 9.213806 -2.499203
RightLeg 57.371267 -0.000000 -0.000000
RightFoot 4.068392 -12.824570 -18.599413
RightToeBase -11.460459 -0.000000 0.000000
1426
root -15.352473 32.462711 -13.461756 288.490678 87.367477 -76.375188
Spine 3.937164 8.970665 -0.186790
Head -15.442923 -25.158954 21.776665
LeftShoulder -4.220643 26.447591 15.528867
LeftArm 39.829896 35.975192 -47.147322
LeftForeArm -5.262806 -0.000000 87.456277
LeftHand -19.040717 -0.000000 -22.802954
LeftHandThumb1 -26.253704 0.000000 33.147579
RightShoulder -13.691234 5.063837 -22.522778
RightArm -13.008734 -50.659161 82.210671
RightForeArm -7.485081 -0.000000 101.438378
RightHand -1.609208 -0.000000 26.376553
RightHandThumb1 -24.326973 -0.000000 -32.862282
LeftUpLeg -16.743983 10.744321 7.953654
LeftLeg 22.486555 -0.000000 -0.000000
LeftFoot -17.611663 10.098227 -29.724000
LeftToeBase 1.921577 -0.000000 -0.000000
RightUpLeg -20.475804 8.589107 -2.574129
RightLeg 57.628368 -0.000000 -0.000000
RightFoot 4.425760 -13.792251 -18.207274
RightToeBase -10.129016 -0.000000 0.000000
1427
root -15.269767 32.510924 -13.615798 308.772173 86.887763 -56.434682
Spine 3.432056 8.897144 -0.256143
Head -14.609991 -26.022929 21.716710
LeftShoulder -4.257395 26.371301 15.523150
LeftArm 40.027107 36.181815 -47.166943
LeftForeArm -5.096626 -0.000000 87.007291
LeftHand -19.028422 0.000000 -22.603171
LeftHandThumb1 -26.253704 0.000000 33.147579
RightShoulder -13.815457 5.070092 -22.536325
RightArm -12.951003 -50.895885 82.366081
RightForeArm -7.210758 -0.000000 100.979913
RightHand -1.636857 -0.000000 26.792970
RightHandThumb1 -24.326973 -0.000000 -32.862282
LeftUpLeg -16.554910 11.070998 7.712057
LeftLeg 22.260297 -0.000000 -0.000000
LeftFoot -18.024690 10.575152 -30.018379
LeftToeBase 1.942707 -0.000000 -0.000000
RightUpLeg -21.206253 7.869669 -2.506878
RightLeg 57.852334 -0.000000 -0.000000
RightFoot 4.472293 -15.133110 -17.589162
RightToeBase -8.144671 -0.000000 0.000000
1428
root -15.201393 32.555719 -13.750420 321.536357 85.995830 -44.151981
Spine 2.781236 8.891887 -0.171923
Head -13.784302 -26.837220 21.627009
LeftShoulder -4.304277 26.271548 15.553393
LeftArm 40.176841 36.445559 -47.261974
LeftForeArm -5.176179 -0.000000 86.573540
LeftHand -18.947477 0.000000 -22.609635
LeftHandThumb1 -26.253704 0.000000 33.147579
RightShoulder -13.822099 5.134584 -22.562891
RightArm -13.293445 -51.144639 82.794760
RightForeArm -7.375224 -0.000000 100.618522
RightHand -1.694921 -0.000000 26.320944
RightHandThumb1 -24.326973 -0.000000 -32.862282
LeftUpLeg -16.550921 11.598427 7.595028
LeftLeg 22.061725 -0.000000 -0.000000
LeftFoot -18.467535 11.039448 -30.276432
LeftToeBase 1.956409 -0.000000 -0.000000
RightUpLeg -22.099484 7.289666 -2.248073
RightLeg 57.976597 -0.000000 -0.000000
RightFoot 4.330965 -16.626978 -16.818922
RightToeBase -6.147358 -0.000000 0.000000
1429
root -15.125747 32.600832 -13.885254 330.117052 85.008987 -35.896332
Spine 2.354348 8.911519 -0.126155
Head -13.064628 -27.597326 21.569454
LeftShoulder -4.267603 26.197139 15.631527
LeftArm 40.305981 36.620901 -47.439011
LeftForeArm -5.182730 -0.000000 86.160852
LeftHand -19.057595 -0.000000 -22.647511
LeftHandThumb1 -26.253704 0.000000 33.147579
RightShoulder -13.901464 5.181322 -22.582819
RightArm -13.364447 -51.347485 83.063968
RightForeArm -7.336627 -0.000000 100.090413
RightHand -1.613285 0.000000 26.301856
RightHandThumb1 -24.326973 -0.000000 -32.862282
LeftUpLeg -16.331157 12.089410 7.438139
LeftLeg 21.754566 -0.000000 -0.000000
LeftFoot -18.907745 11.554585 -30.560440
LeftToeBase 2.015279 -0.000000 -0.000000
RightUpLeg -22.801473 6.640842 -1.971941
RightLeg 57.948938 -0.000000 -0.000000
RightFoot 4.055870 -18.332580 -16.044930
RightToeBase -4.457519 -0.000000 0.000000
1430
root -15.039004 32.646202 -14.014920 335.481042 83.950721 -30.697145
Spine 2.143167 8.913897 -0.016386
Head -12.435223 -28.344766 21.531848
LeftShoulder -4.262110 25.892383 15.668147
LeftArm 40.229273 36.944577 -47.702456
LeftForeArm -5.231838 -0.000000 85.794347
LeftHand -19.145665 -0.000000 -22.692809
LeftHandThumb1 -26.253704 0.000000 33.147579
RightShoulder -13.878503 5.241033 -22.591157
RightArm -13.605408 -51.507201 83.421931
RightForeArm -6.703330 -0.000000 99.580195
RightHand -1.669226 -0.000000 26.132507
RightHandThumb1 -24.326973 -0.000000 -32.862282
LeftUpLeg -15.910544 12.549334 7.340375
LeftLeg 21.395484 -0.000000 -0.000000
LeftFoot -19.350436 12.062521 -30.815937
LeftToeBase 2.112085 -0.000000 -0.000000
RightUpLeg -23.253824 6.014666 -1.624140
RightLeg 57.775573 -0.000000 -0.000000
RightFoot 3.408447 -20.046744 -14.830998
RightToeBase -3.272929 -0.000000 0.000000
1431
root -14.939915 32.691179 -14.148186 339.500669 82.907099 -26.713058
Spine 2.109723 8.887012 0.056467
Head -11.891443 -29.047764 21.538627
LeftShoulder -4.233817 25.793721 15.709444
LeftArm 40.380380 37.195242 -47.767597
LeftForeArm -5.275101 -0.000000 85.472523
LeftHand -19.137584 0.000000 -22.275247
LeftHandThumb1 -26.253704 0.000000 33.147579
RightShoulder -13.913039 5.261687 -22.534126
RightArm -13.616099 -51.676369 83.554919
RightForeArm -6.241867 -0.000000 98.996812
RightHand -1.613446 -0.000000 25.976789
RightHandThumb1 -24.326973 -0.000000 -32.862282
LeftUpLeg -15.318598 12.977190 7.200224
LeftLeg 20.962192 -0.000000 -0.000000
LeftFoot -19.734627 12.593920 -30.990676
LeftToeBase 2.089366 -0.000000 -0.000000
RightUpLeg -23.501691 5.304687 -1.312212
RightLeg 57.456300 -0.000000 -0.000000
RightFoot 2.709379 -21.511804 -13.961598
RightToeBase -3.277147 -0.000000 0.000000
1432
root -14.838588 32.732767 -14.274778 342.317467 81.809064 -23.932699
Spine 2.044887 8.892310 0.172424
Head -11.334158 -29.768970 21.472912
LeftShoulder -4.094911 25.664457 15.799208
LeftArm 40.348773 37.438227 -47.965257
LeftForeArm -5.154327 -0.000000 85.261585
LeftHand -19.246119 0.000000 -22.212273
LeftHandThumb1 -26.253704 0.000000 33.147579
RightShoulder -13.884065 5.202872 -22.471742
RightArm -13.631765 -51.760089 83.670009
RightForeArm -5.694198 0.000000 98.421194
RightHand -1.576553 -0.000000 26.040520
RightHandThumb1 -24.326973 -0.000000 -32.862282
LeftUpLeg -14.725584 13.483416 7.089875
LeftLeg 20.520465 -0.000000 -0.000000
LeftFoot -20.161801 13.074487 -31.202051
LeftToeBase 2.210892 -0.000000 -0.000000
RightUpLeg -23.718806 4.621187 -0.934596
RightLeg 57.014930 -0.000000 -0.000000
RightFoot 1.997659 -22.623503 -13.236261
RightToeBase -3.394310 -0.000000 0.000000
1433
root -14.743759 32.770181 -14.392683 344.399990 80.673949 -21.936443
Spine 1.972244 8.911929 0.299954
Head -10.818945 -30.442560 21.395105
LeftShoulder -4.040428 25.528729 15.862657
LeftArm 40.369137 37.717072 -48.060578
LeftForeArm -5.133033 -0.000000 85.137830
LeftHand -19.320325 -0.000000 -21.969473
LeftHandThumb1 -26.253704 0.000000 33.147579
RightShoulder -13.889654 5.300982 -22.463491
RightArm -13.955831 -51.818583 84.027833
RightForeArm -5.063568 0.000000 97.776770
RightHand -1.199079 -0.000000 26.127047
RightHandThumb1 -24.326973 -0.000000 -32.862282
LeftUpLeg -14.224339 14.027005 7.021084
LeftLeg 20.176665 -0.000000 -0.000000
LeftFoot -20.537391 13.415513 -31.412617
LeftToeBase 2.253060 -0.000000 -0.000000
RightUpLeg -23.980112 3.972353 -0.518118
RightLeg 56.533799 -0.000000 -0.000000
RightFoot 1.218476 -23.323648 -12.672575
RightToeBase -3.676370 -0.000000 0.000000
1434
root -14.659505 32.802129 -14.506238 346.055366 79.542656 -20.459394
Spine 1.805026 8.904298 0.429202
Head -10.300082 -30.969988 21.291017
LeftShoulder -3.959502 25.540020 15.949378
LeftArm 40.448703 37.885846 -48.112549
LeftForeArm -4.964597 -0.000000 85.106680
LeftHand -19.378238 0.000000 -21.742597
LeftHandThumb1 -26.253704 0.000000 33.147579
RightShoulder -13.923034 5.266649 -22.451817
RightArm -13.990466 -51.989204 84.176962
RightForeArm -4.191087 0.000000 97.170532
RightHand -1.146133 -0.000000 26.078221
RightHandThumb1 -24.326973 -0.000000 -32.862282
LeftUpLeg -13.861811 14.584047 6.913641
LeftLeg 19.825332 -0.000000 -0.000000
LeftFoot -20.988929 13.882218 -31.620449
LeftToeBase 2.367621 -0.000000 -0.000000
RightUpLeg -24.330083 3.329362 -0.058511
RightLeg 55.976623 -0.000000 -0.000000
RightFoot 0.256061 -23.823687 -11.998860
RightToeBase -3.256573 -0.000000 0.000000
